<svg height="512" viewBox="0 0 512 512" width="512" xmlns="http://www.w3.org/2000/svg"><g id="Filled_outline" data-name="Filled outline"><path d="m152 464h16v32h-16z"/><path d="m344 472h16v24h-16z"/><path d="m416 349.76v146.24h-320v-146.24a38.631 38.631 0 0 1 .34-5.18 40 40 0 0 1 28.17-33.13l51.49-15.45 24-8 32 64 12.39 41.29 9.21 30.71 2.4 8 2.4-8 9.21-30.71 12.39-41.29 32-64 24 8 51.49 15.45a39.97 39.97 0 0 1 27.89 31.34 39.194 39.194 0 0 1 .62 6.97z" fill="#dfdfdd"/><path d="m304 200v64l-48 48-48-48v-64z" fill="#fdc8a2"/><path d="m304 208v36.29q-2.25 2.22-4.69 4.23a68.314 68.314 0 0 1 -91.31-4.23v-36.29z" fill="#fdb683"/><path d="m256 248a68.309 68.309 0 0 1 -66.983-54.912 258.435 258.435 0 0 1 -5.017-50.672v-32.825a72 72 0 0 1 72-72 72 72 0 0 1 72 72v32.825a258.435 258.435 0 0 1 -5.017 50.671 68.309 68.309 0 0 1 -66.983 54.913z" fill="#fdc8a2"/><circle cx="220" cy="132" fill="#91563a" r="12"/><circle cx="292" cy="132" fill="#91563a" r="12"/><path d="m184 120h-8a24 24 0 0 0 0 48h9.273q-1.268-12.746-1.273-25.584z" fill="#fdb683"/><path d="m336 120h-8v22.416q0 12.824-1.273 25.584h9.273a24 24 0 0 0 0-48z" fill="#fdb683"/><path d="m312 48-8-8c-10.113-12.644-25.426-16-41.617-16h-12.766c-16.191 0-31.5 3.356-41.617 16l-8 8c-32 24-16 72-16 72a174.461 174.461 0 0 0 32-56c24.624 9.393 55.376 9.393 80 0a174.461 174.461 0 0 0 32 56s16-56-16-72z" fill="#91563a"/><path d="m312 288-32 64-12.39 41.29-9.21 30.71-2.4 8-2.4-8-9.21-30.71-12.39-41.29-32-64 8-24 48 48 48-48z" fill="#3ba5d3"/><g fill="#4db6e4"><circle cx="176" cy="416" r="24"/><path d="m208 264 48 48-24 40-32-64z"/><path d="m304 264-48 48 24 40 32-64z"/></g><path d="m280 352-24-40-24 40 16 16-3.61 25.29 9.21 30.71 2.4 8 2.4-8 9.21-30.71-3.61-25.29z" fill="#348ed8"/><path d="m152 464h16v32h-16z"/><path d="m344 472h16v24h-16z"/><path d="m389.79 303.788-45.79-13.74v-2.048a32.036 32.036 0 0 0 -32-32v-24.485a75.909 75.909 0 0 0 18.825-36.858c1.229-6.152 2.241-12.4 3.038-18.657h2.137a32 32 0 0 0 1.951-63.935c3.272-18.22 6.19-55.8-21.163-70.591l-6.832-6.832c-10.232-12.542-25.8-18.642-47.573-18.642h-12.766c-21.773 0-37.341 6.1-47.573 18.642l-7.314 7.315a55.338 55.338 0 0 0 -8.876 8.5l12.292 10.243a39.527 39.527 0 0 1 6.654-6.3 7.965 7.965 0 0 0 .857-.743l8-8a8.042 8.042 0 0 0 .591-.66c7.091-8.867 18.33-13 35.369-13h12.766c17.039 0 28.278 4.13 35.369 13a8.042 8.042 0 0 0 .591.66l8 8a7.986 7.986 0 0 0 2.079 1.5c10.278 5.135 15.515 16.754 15.578 34.532a101.323 101.323 0 0 1 -.6 11.061 167.69 167.69 0 0 1 -19.87-39.45 8 8 0 0 0 -10.382-4.772c-22.914 8.742-51.382 8.742-74.3 0a8 8 0 0 0 -10.378 4.772 167.547 167.547 0 0 1 -20.059 39.727c-.834-8.49-.64-19.077 3.065-28.8l-14.952-5.7c-6.373 16.728-4.757 34.6-2.688 45.554a32 32 0 0 0 2.164 63.919h2.136c.8 6.253 1.81 12.5 3.039 18.655a75.911 75.911 0 0 0 18.825 36.86v24.485a32.036 32.036 0 0 0 -32 32v2.048l-45.787 13.739a48.3 48.3 0 0 0 -34.213 45.973v146.24h16v-132.184l29.029 11.612 5.942-14.856-34.8-13.92a32.213 32.213 0 0 1 22.638-27.539l41.191-12.36v78.26a32 32 0 1 0 16 0v-83.247l11.948-3.982 28.588 57.176 23.464 78.214v63.159h16v-63.159l23.464-78.214 28.588-57.176 11.948 3.982v50.913a48.07 48.07 0 0 0 -40 47.321v48a8 8 0 0 0 8 8h16v-16h-8v-40a32 32 0 0 1 64 0v40h-8v16h16a8 8 0 0 0 8-8v-48a48.07 48.07 0 0 0 -40-47.321v-45.926l41.194 12.361a32.2 32.2 0 0 1 22.723 28.66l-20.355 13.57 8.876 13.312 11.562-7.708v25.052h16v-42.24a48.3 48.3 0 0 0 -34.21-45.972zm-62.114-19-9.352-3.117-3.117-9.352a16.046 16.046 0 0 1 12.469 12.474zm-71.676-28.788a76.537 76.537 0 0 0 40-11.335v16.022l-40 40-40-40v-16.01a75.836 75.836 0 0 0 40 11.323zm-23.362 79.388-24-48 2.859-8.576 34.43 34.43-9.966 16.611zm23.362-7.839 13.926 23.211-11.583 11.583a8 8 0 0 0 -2.343 5.623 8 8 0 0 0 -2.343-5.623l-11.583-11.583zm-.08 41.581a7.96 7.96 0 0 0 .08-1.1 7.96 7.96 0 0 0 .08 1.1l3.361 23.548-3.441 11.475-3.441-11.475zm23.442-33.742-3.322-5.537-9.966-16.611 34.43-34.43 2.859 8.576zm72.638-191.388a16.019 16.019 0 0 1 -16 16h-.588c.023-.339.588-32 .588-32a16.019 16.019 0 0 1 16 16zm-192 0a16.019 16.019 0 0 1 16-16v14.42c0 4.7.569 17.223.593 17.58h-.593a16.019 16.019 0 0 1 -16-16zm33.232 23.226c-.309-3.179-1.232-44.368-1.232-44.368a179.635 179.635 0 0 0 28.754-48.81 127.015 127.015 0 0 0 70.492 0 179.635 179.635 0 0 0 28.754 48.81c0 22.876-.367 46.151-4.865 68.666a60.865 60.865 0 0 1 -59.135 48.476 59.973 59.973 0 0 1 -42.379-17.4c-14.934-14.744-18.364-35.111-20.389-55.374zm3.561 105.1-3.117 9.352-9.352 3.117a16.046 16.046 0 0 1 12.469-12.471zm-4.793 143.674a16 16 0 1 1 -24-13.835v13.835h16v-13.835a16 16 0 0 1 8 13.835z"/><path d="m408 408h16v88h-16z"/><path d="m232 132a12 12 0 1 0 -12 12 12.013 12.013 0 0 0 12-12z"/><path d="m292 144a12 12 0 1 0 -12-12 12.013 12.013 0 0 0 12 12z"/><path d="m282.78 187.242-5.56-15a64.985 64.985 0 0 1 -22.329 3.758h-14.891v16h14.891a81.13 81.13 0 0 0 27.889-4.758z"/><path d="m216 448h16v16h-16z"/></g></svg>