<svg id="Capa_1" enable-background="new 0 0 512 512" height="512" viewBox="0 0 512 512" width="512" xmlns="http://www.w3.org/2000/svg"><g><g><path d="m188.481 102.597.1-31.875c0-1.959 1.588-3.546 3.546-3.546h128.066c1.958 0 3.545 1.587 3.545 3.545l-.1 31.876 17.021 9 17.142-9 .097-29.427c0-22.001-17.836-39.837-39.837-39.837h-123.804c-22.001 0-39.837 17.835-39.837 39.837l-.097 29.427 17.018 9z" fill="#08475e"/><g fill="#05303d"><path d="m188.422 102.597h-34.099l-.061 18.907 17.08 9 17.08-9z"/><path d="m357.738 102.597h-34.101l-.059 18.907 17.08 9 17.08-9z"/></g><path d="m46.777 469.086h418.447c11.001 0 19.918-10.338 19.918-28.918v-121.03l-229.142-9-229.142 9v121.03c0 18.58 8.918 28.918 19.919 28.918z" fill="#eaf1ff"/><path d="m465.223 460.086h-418.446c-11.001 0-19.918-8.918-19.918-19.918v18.581c0 11.001 8.918 19.918 19.918 19.918h418.447c11.001 0 19.918-8.918 19.918-19.918v-18.581c0 11-8.918 19.918-19.919 19.918z" fill="#d5e7ff"/><path d="m19.918 309.557h472.163c11 0 19.918-7.812 19.918-28.919v-139.216c0-11.001-8.918-19.918-19.918-19.918h-472.163c-11 0-19.918 8.917-19.918 19.918v139.216c0 18.581 8.918 28.919 19.918 28.919z" fill="#dc5c65"/><path d="m492.082 300.557h-472.164c-11 0-19.918-8.918-19.918-19.918v18.581c0 11.001 8.918 19.918 19.918 19.918h472.163c11 0 19.918-8.918 19.918-19.918v-18.581c.001 11-8.917 19.918-19.917 19.918z" fill="#b94551"/><path d="m298.348 201.335h-22.655v-22.655c0-4.375-3.546-7.921-7.921-7.921h-23.543c-4.375 0-7.921 3.546-7.921 7.921v22.655h-22.655c-4.375 0-7.921 3.546-7.921 7.921v23.543c0 4.375 3.546 7.921 7.921 7.921h22.655v22.655c0 4.375 3.546 7.921 7.921 7.921h23.543c4.375 0 7.921-3.546 7.921-7.921v-22.655h22.655c4.375 0 7.921-3.546 7.921-7.921v-23.543c0-4.375-3.547-7.921-7.921-7.921z" fill="#eaf1ff"/><path d="m126.789 264.206h-30.7c-2.851 0-5.161 2.311-5.161 5.161v60.915l20.511 9 20.511-9v-60.915c.001-2.85-2.31-5.161-5.161-5.161z" fill="#08475e"/><path d="m90.928 348.864 20.511 9 20.512-9v-18.581h-41.023z" fill="#05303d"/><path d="m90.928 402.456v5.976c0 5.5 4.459 9.959 9.959 9.959h21.104c5.5 0 9.959-4.459 9.959-9.959v-5.976l-20.511-9z" fill="#08475e"/><path d="m90.928 383.875v18.581h41.023v-18.581l-20.512-9z" fill="#05303d"/><path d="m77.47 357.079c0 6.667 4.893 17.215 9.797 17.215h48.345c4.904 0 9.797-10.776 9.797-17.215-.826-4.667-4.893-8.215-9.797-8.215h-48.345c-4.904 0-8.971 3.548-9.797 8.215z" fill="#f7e471"/><path d="m135.612 365.294h-48.345c-4.904 0-8.971-3.548-9.797-8.215-.1.567-.162 1.148-.162 1.744v15.093c0 5.5 4.459 9.959 9.959 9.959h48.345c5.5 0 9.959-4.459 9.959-9.959v-15.093c0-.596-.062-1.177-.162-1.744-.826 4.667-4.893 8.215-9.797 8.215z" fill="#f1cb66"/><path d="m415.911 264.206h-30.7c-2.85 0-5.161 2.311-5.161 5.161v60.915l20.511 9 20.511-9v-60.915c0-2.85-2.311-5.161-5.161-5.161z" fill="#08475e"/><path d="m380.05 348.864 20.511 9 20.511-9v-18.581h-41.022z" fill="#05303d"/><path d="m380.05 402.456v5.976c0 5.5 4.459 9.959 9.959 9.959h21.104c5.5 0 9.959-4.459 9.959-9.959v-5.976l-20.511-9z" fill="#08475e"/><path d="m380.05 383.875v18.581h41.022v-18.581l-20.511-9z" fill="#05303d"/><path d="m366.591 357.079c0 6.667 4.893 17.215 9.797 17.215h48.345c4.904 0 9.797-10.776 9.797-17.215-.826-4.667-4.893-8.215-9.797-8.215h-48.345c-4.904 0-8.971 3.548-9.797 8.215z" fill="#f7e471"/><path d="m424.733 365.294h-48.345c-4.904 0-8.971-3.548-9.797-8.215-.1.567-.162 1.148-.162 1.744v15.093c0 5.5 4.459 9.959 9.959 9.959h48.345c5.5 0 9.959-4.459 9.959-9.959v-15.093c0-.596-.062-1.177-.162-1.744-.826 4.667-4.892 8.215-9.797 8.215z" fill="#f1cb66"/></g></g></svg>